<svg width="58" height="58" viewBox="0 0 58 58" fill="none" xmlns="http://www.w3.org/2000/svg">
<path d="M21.75 45.9168C9.66671 49.5418 9.66671 39.8751 4.83337 38.6668M38.6667 53.1668V43.8143C38.7574 42.6619 38.6017 41.5035 38.21 40.416C37.8183 39.3284 37.1996 38.3367 36.395 37.5068C43.9834 36.661 51.9584 33.7851 51.9584 20.5901C51.9578 17.216 50.6599 13.9714 48.3334 11.5276C49.435 8.57569 49.3571 5.31281 48.1159 2.4168C48.1159 2.4168 45.2642 1.57097 38.6667 5.99347C33.1277 4.49229 27.289 4.49229 21.75 5.99347C15.1525 1.57097 12.3009 2.4168 12.3009 2.4168C11.0596 5.31281 10.9817 8.57569 12.0834 11.5276C9.73951 13.9895 8.4403 17.2635 8.45837 20.6626C8.45837 33.761 16.4334 36.6368 24.0217 37.5793C23.2266 38.4009 22.6134 39.3807 22.222 40.4549C21.8306 41.5292 21.6698 42.6738 21.75 43.8143V53.1668" stroke="#1E1E1E" stroke-width="4" stroke-linecap="round" stroke-linejoin="round"/>
</svg>
